<svg width="50" height="50" viewBox="0 0 50 50" fill="none" xmlns="http://www.w3.org/2000/svg">
<circle cx="24.6162" cy="24.6162" r="24.6162" fill="#F0F0F5"/>
<path d="M14.875 35C14.3918 35 14 34.6082 14 34.125V33.1458C14 32.9137 14.0922 32.6911 14.2563 32.5271V32.5271C14.8075 31.9758 15.75 32.3662 15.75 33.1458V34.125C15.75 34.6082 15.3582 35 14.875 35V35ZM19.6875 35C19.2043 35 18.8125 34.6082 18.8125 34.125V28.4791C18.8125 28.247 18.9047 28.0245 19.0688 27.8604V27.8604C19.62 27.3092 20.5625 27.6996 20.5625 28.4791V34.125C20.5625 34.6082 20.1707 35 19.6875 35V35ZM24.5 35C24.0168 35 23.625 34.6082 23.625 34.125V28.504C23.625 27.721 24.5747 27.3322 25.1238 27.8905V27.8905C25.2848 28.0541 25.375 28.2745 25.375 28.504V34.125C25.375 34.6082 24.9832 35 24.5 35V35ZM29.3125 35C28.8293 35 28.4375 34.6082 28.4375 34.125V28.5083C28.4375 28.2762 28.5297 28.0536 28.6938 27.8896V27.8896C29.245 27.3383 30.1875 27.7287 30.1875 28.5083V34.125C30.1875 34.6082 29.7957 35 29.3125 35V35ZM34.125 35C33.6418 35 33.25 34.6082 33.25 34.125V23.8124C33.25 23.5804 33.3422 23.3578 33.5063 23.1937V23.1937C34.0575 22.6425 35 23.0329 35 23.8124V34.125C35 34.6082 34.6082 35 34.125 35V35ZM15.4994 26.6279C14.9444 27.179 14 26.7859 14 26.0037V26.0037C14 25.7693 14.0935 25.5446 14.2599 25.3795L21.3712 18.319C21.811 17.8823 22.5211 17.8836 22.9593 18.3218L26.0364 21.3989C26.4763 21.8388 27.1897 21.8382 27.6288 21.3975L33.5053 15.5001C34.056 14.9474 35 15.3374 35 16.1177V16.1177C35 16.3492 34.9082 16.5712 34.7448 16.7352L27.6288 23.8767C27.1897 24.3173 26.4763 24.318 26.0364 23.8781L22.9593 20.801C22.5211 20.3628 21.811 20.3615 21.3712 20.7981L15.4994 26.6279Z" fill="#10377A"/>
</svg>
