<svg width="50" height="50" viewBox="0 0 50 50" fill="none" xmlns="http://www.w3.org/2000/svg">
<circle cx="24.6162" cy="25.1933" r="24.6162" fill="#F0F0F5"/>
<path d="M33.8473 17.1525H33.1482L27.8053 11.8096C26.7252 10.7301 24.9685 10.7301 23.8885 11.8096L18.5459 17.1525H15.3851C13.6885 17.1525 12.3081 18.5329 12.3081 20.2296V33.7685C12.3081 35.4652 13.6885 36.8455 15.3851 36.8455H33.8473C35.544 36.8455 36.9244 35.4652 36.9244 33.7685V20.2296C36.9244 18.5329 35.544 17.1525 33.8473 17.1525ZM24.5633 17.1525L27.9856 13.7303L28.6539 14.3986L25.9 17.1525H24.5633ZM29.5241 15.2688L31.4075 17.1525H27.6403L29.5241 15.2688ZM24.759 12.6801C25.3587 12.08 26.3354 12.08 26.9351 12.6801L27.1154 12.8604L22.8229 17.1525H20.2865L24.759 12.6801ZM33.8473 35.6147H15.3851C14.3669 35.6147 13.5389 34.7867 13.5389 33.7685V20.2296C13.5389 19.2114 14.3669 18.3833 15.3851 18.3833H33.8473C34.8655 18.3833 35.6935 19.2114 35.6935 20.2296V23.922H31.3857C29.689 23.922 28.3087 25.3023 28.3087 26.999C28.3087 28.6957 29.689 30.0761 31.3857 30.0761H35.6935V33.7685C35.6935 34.7867 34.8655 35.6147 33.8473 35.6147ZM35.6935 25.1528V28.8452H31.3857C30.3675 28.8452 29.5395 28.0172 29.5395 26.999C29.5395 25.9808 30.3675 25.1528 31.3857 25.1528H35.6935ZM31.3857 26.3836H32.6165C32.9562 26.3836 33.2319 26.6593 33.2319 26.999C33.2319 27.3387 32.9562 27.6144 32.6165 27.6144H31.3857C31.046 27.6144 30.7703 27.3387 30.7703 26.999C30.7703 26.6593 31.046 26.3836 31.3857 26.3836Z" fill="#10377A"/>
</svg>
