<svg width="50" height="50" viewBox="0 0 50 50" fill="none" xmlns="http://www.w3.org/2000/svg">
<circle cx="24.6162" cy="24.6974" r="24.6162" fill="#F0F0F5"/>
<mask id="mask0_405_4" style="mask-type:alpha" maskUnits="userSpaceOnUse" x="12" y="13" width="26" height="22">
<path d="M36.515 17.528C36.0837 17.1156 35.5075 16.8886 34.8919 16.8886H30.1557V15.3331C30.1557 14.0466 29.0934 13 27.7875 13H21.4725C20.1667 13 19.1044 14.0466 19.1044 15.3331V16.8886H14.3681C13.7526 16.8886 13.1764 17.1156 12.7512 17.522C12.7499 17.5232 12.7491 17.5247 12.7478 17.5259C12.7469 17.5267 12.7459 17.5272 12.7451 17.528C12.7426 17.5305 12.7413 17.5336 12.7389 17.5361C12.2702 17.9816 12 18.5936 12 19.2217V32.4428C12 33.7293 13.0623 34.7759 14.3681 34.7759H34.8919C36.1978 34.7759 37.2601 33.7293 37.2601 32.4428V19.2217C37.2601 18.5875 36.986 17.9685 36.515 17.528ZM20.6831 15.3331C20.6831 14.904 21.0373 14.5554 21.4725 14.5554H27.7875C28.2227 14.5554 28.5769 14.904 28.5769 15.3331V16.8886H20.6831V15.3331ZM34.9414 18.453C34.9414 18.453 32.8737 23.1158 32.8661 23.133C32.6996 23.5084 32.535 23.888 32.0501 23.888C32.0501 23.888 28.5769 23.888 28.5769 23.888C28.5769 23.0305 27.8688 22.3325 26.9981 22.3325H22.2619C21.3912 22.3325 20.6831 23.0305 20.6831 23.888C20.6831 23.888 17.2137 23.888 17.2099 23.888C16.714 23.888 16.5603 23.5122 16.394 23.133L14.3186 18.4529C14.3358 18.4519 34.9243 18.4519 34.9414 18.453ZM26.9993 25.4434H22.2619V23.888H26.9981L26.9993 25.4434ZM34.8919 33.2205H14.3681C13.933 33.2205 13.5787 32.8719 13.5787 32.4428V20.6696L14.9205 23.6951C15.196 24.7287 16.1265 25.4434 17.21 25.4434H20.6831C20.6831 26.3009 21.3912 26.9988 22.2619 26.9988H26.9981C27.8689 26.9988 28.5769 26.3009 28.5769 25.4434H32.0501C33.1335 25.4434 34.064 24.7287 34.3396 23.6951L35.6813 20.6696V32.4428C35.6813 32.8719 35.3271 33.2205 34.8919 33.2205Z" fill="#1A1A1A"/>
</mask>
<g mask="url(#mask0_405_4)">
<rect x="7.64478" y="8.64478" width="33.0994" height="31.3573" fill="#10377A"/>
</g>
</svg>
