<svg width="50" height="50" viewBox="0 0 50 50" fill="none" xmlns="http://www.w3.org/2000/svg">
<circle cx="24.6162" cy="24.6974" r="24.6162" fill="#F0F0F5"/>
<path d="M36.4801 13H14.1361C13.5302 13 13 13.4923 13 14.1361V33.6776C13 34.2836 13.4923 34.8138 14.1361 34.8138H16.6735V37.0861C16.6735 37.3133 16.825 37.4648 17.0522 37.4648C17.2794 37.4648 17.4309 37.3133 17.4309 37.0861V33.9427H22.6193V37.0861C22.6193 37.3133 22.7708 37.4648 22.998 37.4648C23.2252 37.4648 23.3767 37.3133 23.3767 37.0861V34.8138H36.4801C37.0861 34.8138 37.6162 34.3215 37.6162 33.6776V14.1361C37.6162 13.5302 37.1239 13 36.4801 13ZM17.4309 33.1853V32.5036C17.4309 32.3522 17.3552 32.2385 17.2416 32.1628L15.7646 31.3296V29.3982L16.6735 28.868V29.7769C16.6735 30.0041 16.825 30.1556 17.0522 30.1556C17.2794 30.1556 17.4309 30.0041 17.4309 29.7769V23.8311V22.7708C17.4309 22.6193 17.5824 22.392 17.8096 22.392C17.999 22.392 18.1883 22.5435 18.1883 22.7708V23.8311V27.6561C18.1883 27.8834 18.3398 28.0348 18.5671 28.0348C18.6807 28.0348 18.7564 27.997 18.8322 27.9212C18.9079 27.8455 18.9458 27.7697 18.9458 27.6561V25.9519C18.9458 25.7626 19.0973 25.5732 19.3245 25.5732C19.5138 25.5732 19.7032 25.7247 19.7032 25.9519V27.6561C19.7032 27.8834 19.8547 28.0348 20.0819 28.0348C20.3091 28.0348 20.4606 27.8834 20.4606 27.6561V25.9519C20.4606 25.7626 20.6121 25.5732 20.8393 25.5732C21.0287 25.5732 21.218 25.7247 21.218 25.9519V27.6561C21.218 27.8834 21.3695 28.0348 21.5968 28.0348C21.824 28.0348 21.9755 27.8834 21.9755 27.6561V25.9519C21.9755 25.7626 22.1269 25.5732 22.3542 25.5732C22.5435 25.5732 22.7329 25.7247 22.7329 25.9519V33.1853H17.4309ZM15.6889 15.651H19.9304V17.1658H15.6889L15.6889 15.651ZM15.6889 17.9232H19.9304V23.4524H18.9458V22.7708C18.9458 22.1269 18.4156 21.6346 17.8096 21.6346C17.1658 21.6346 16.6735 22.2027 16.6735 22.7708V23.4524H15.6889V17.9232ZM36.8588 33.6776C36.8588 33.867 36.7073 34.0564 36.4801 34.0564H23.3767V25.9519C23.3767 25.346 22.8844 24.8158 22.2406 24.8158C21.9376 24.8158 21.7104 24.9294 21.4831 25.1188C21.2938 24.9294 21.0287 24.8158 20.7257 24.8158C20.4227 24.8158 20.1955 24.9294 19.9683 25.1188C19.7789 24.9294 19.5138 24.8158 19.2109 24.8158C19.0973 24.8158 18.9458 24.8537 18.8322 24.8915V24.2099H20.1955C20.4227 24.2099 20.5742 24.0584 20.5742 23.8311V15.2723C20.5742 15.045 20.4227 14.8936 20.1955 14.8936H15.3101C15.1587 14.8936 15.0072 15.0072 14.9693 15.1208C14.9314 15.1965 14.9314 15.2344 14.9314 15.2723V23.7933C14.9314 24.0205 15.0829 24.172 15.3101 24.172H16.6735V27.9212L15.1965 28.8301C15.0829 28.9059 15.0072 29.0195 15.0072 29.171V31.519C15.0072 31.6705 15.0829 31.7841 15.1965 31.8598L16.6735 32.693V34.0564H14.1361C13.9468 34.0564 13.7574 33.9049 13.7574 33.6776V14.1361C13.7574 13.9468 13.9089 13.7574 14.1361 13.7574H36.4801C36.6695 13.7574 36.8588 13.9089 36.8588 14.1361L36.8588 33.6776Z" fill="#10377A"/>
<path d="M35.3442 14.8936H24.4373C24.2101 14.8936 24.0586 15.0451 24.0586 15.2723V20.65C24.0586 20.8773 24.2101 21.0287 24.4373 21.0287H35.3442C35.5714 21.0287 35.7229 20.8773 35.7229 20.65V15.2723C35.7229 15.083 35.5714 14.8936 35.3442 14.8936ZM34.9655 20.2713H24.816V15.651H34.9655V20.2713Z" fill="#10377A"/>
<path d="M27.3152 23.4525H25.2702C25.0429 23.4525 24.8915 23.6039 24.8915 23.8312C24.8915 24.0584 25.0429 24.2099 25.2702 24.2099H27.3152C27.5424 24.2099 27.6939 24.0584 27.6939 23.8312C27.6939 23.6039 27.5046 23.4525 27.3152 23.4525Z" fill="#10377A"/>
<path d="M34.511 23.4525H32.4659C32.2387 23.4525 32.0872 23.6039 32.0872 23.8312C32.0872 24.0584 32.2387 24.2099 32.4659 24.2099H34.511C34.7382 24.2099 34.8897 24.0584 34.8897 23.8312C34.8897 23.6039 34.7382 23.4525 34.511 23.4525Z" fill="#10377A"/>
<path d="M30.9131 23.4525H28.8681C28.6408 23.4525 28.4893 23.6039 28.4893 23.8312C28.4893 24.0584 28.6408 24.2099 28.8681 24.2099H30.9131C31.1403 24.2099 31.2918 24.0584 31.2918 23.8312C31.2918 23.6039 31.1403 23.4525 30.9131 23.4525Z" fill="#10377A"/>
<path d="M27.3152 27.3911H25.2702C25.0429 27.3911 24.8915 27.5425 24.8915 27.7698C24.8915 27.997 25.0429 28.1485 25.2702 28.1485H27.3152C27.5424 28.1485 27.6939 27.997 27.6939 27.7698C27.6939 27.5804 27.5046 27.3911 27.3152 27.3911Z" fill="#10377A"/>
<path d="M34.511 27.3911H32.4659C32.2387 27.3911 32.0872 27.5425 32.0872 27.7698C32.0872 27.997 32.2387 28.1485 32.4659 28.1485H34.511C34.7382 28.1485 34.8897 27.997 34.8897 27.7698C34.8897 27.5804 34.7382 27.3911 34.511 27.3911Z" fill="#10377A"/>
<path d="M30.9131 27.3911H28.8681C28.6408 27.3911 28.4893 27.5425 28.4893 27.7698C28.4893 27.997 28.6408 28.1485 28.8681 28.1485H30.9131C31.1403 28.1485 31.2918 27.997 31.2918 27.7698C31.2918 27.5804 31.1403 27.3911 30.9131 27.3911Z" fill="#10377A"/>
<path d="M27.3152 31.3676H25.2702C25.0429 31.3676 24.8915 31.519 24.8915 31.7463C24.8915 31.9735 25.0429 32.125 25.2702 32.125H27.3152C27.5424 32.125 27.6939 31.9735 27.6939 31.7463C27.6939 31.5569 27.5046 31.3676 27.3152 31.3676Z" fill="#10377A"/>
<path d="M34.511 31.3676H32.4659C32.2387 31.3676 32.0872 31.519 32.0872 31.7463C32.0872 31.9735 32.2387 32.125 32.4659 32.125H34.511C34.7382 32.125 34.8897 31.9735 34.8897 31.7463C34.8897 31.5569 34.7382 31.3676 34.511 31.3676Z" fill="#10377A"/>
<path d="M30.9131 31.3676H28.8681C28.6408 31.3676 28.4893 31.519 28.4893 31.7463C28.4893 31.9735 28.6408 32.125 28.8681 32.125H30.9131C31.1403 32.125 31.2918 31.9735 31.2918 31.7463C31.2918 31.5569 31.1403 31.3676 30.9131 31.3676Z" fill="#10377A"/>
<path d="M25.7249 19.2488H27.5427C27.77 19.2488 27.9214 19.0973 27.9214 18.8701V17.0522C27.9214 16.825 27.77 16.6735 27.5427 16.6735H25.7249C25.4977 16.6735 25.3462 16.825 25.3462 17.0522V18.8701C25.3462 19.0594 25.4977 19.2488 25.7249 19.2488ZM26.1036 17.4309H27.164V18.4913H26.1036V17.4309Z" fill="#10377A"/>
<path d="M28.9817 19.2488H30.7996C31.0268 19.2488 31.1783 19.0973 31.1783 18.8701V17.0522C31.1783 16.825 31.0268 16.6735 30.7996 16.6735H28.9817C28.7545 16.6735 28.603 16.825 28.603 17.0522V18.8701C28.603 19.0594 28.7924 19.2488 28.9817 19.2488ZM29.3605 17.4309H30.4208V18.4913H29.3605V17.4309Z" fill="#10377A"/>
<path d="M32.2766 19.2488H34.0944C34.3217 19.2488 34.4732 19.0973 34.4732 18.8701V17.0522C34.4732 16.825 34.3217 16.6735 34.0944 16.6735H32.2766C32.0494 16.6735 31.8979 16.825 31.8979 17.0522V18.8701C31.8979 19.0594 32.0494 19.2488 32.2766 19.2488ZM32.6553 17.4309H33.7157V18.4913H32.6553V17.4309Z" fill="#10377A"/>
</svg>
