<?xml version="1.0" standalone="no"?>
<!DOCTYPE svg PUBLIC "-//W3C//DTD SVG 20010904//EN"
 "http://www.w3.org/TR/2001/REC-SVG-20010904/DTD/svg10.dtd">
<svg version="1.0" xmlns="http://www.w3.org/2000/svg"
 width="40.000000pt" height="39.000000pt" viewBox="0 0 40.000000 39.000000"
 preserveAspectRatio="xMidYMid meet">

<g transform="translate(0.000000,39.000000) scale(0.100000,-0.100000)"
fill="#000000" stroke="none">
<path d="M131 373 c-50 -26 -76 -66 -76 -118 0 -24 5 -49 11 -55 9 -9 11 2 10
43 -1 49 3 59 28 86 37 39 83 48 125 26 47 -24 73 -71 65 -117 -7 -49 13 -51
22 -3 18 98 -97 184 -185 138z"/>
<path d="M125 315 c-26 -25 -35 -88 -15 -100 6 -4 10 10 10 34 0 30 6 44 22
55 51 36 108 4 108 -60 0 -21 4 -33 10 -29 6 3 10 22 10 41 0 74 -93 112 -145
59z"/>
<path d="M162 288 c-18 -18 -16 -193 2 -226 8 -15 18 -36 22 -47 7 -19 8 -19
11 3 4 19 10 22 53 22 41 0 49 -3 55 -23 l8 -22 4 24 c3 13 11 31 19 39 10 10
14 31 12 66 l-3 51 -45 1 c-25 1 -53 2 -62 3 -15 1 -18 10 -18 49 0 47 -12 72
-35 72 -6 0 -16 -5 -23 -12z m38 -84 c0 -59 11 -83 23 -51 4 9 8 9 15 -2 9
-13 13 -13 27 -1 14 12 18 12 27 -1 7 -11 11 -11 15 -1 11 27 23 10 23 -32 0
-31 -5 -46 -16 -50 -28 -11 -120 -6 -132 6 -13 13 -18 189 -6 201 16 15 24 -9
24 -69z"/>
</g>
</svg>
